<svg width="240" height="32" viewBox="0 0 240 32" fill="none" xmlns="http://www.w3.org/2000/svg">
<path d="M32.2625 1.60146C32.2613 1.40275 32.221 1.20622 32.1438 1.02311C32.0666 0.839995 31.9542 0.673899 31.8128 0.534259C31.6714 0.394618 31.5039 0.284159 31.3199 0.209251C31.1358 0.134344 30.9388 0.0964549 30.7401 0.0976853H1.60791C1.40921 0.0964549 1.21219 0.134344 1.02814 0.209251C0.844088 0.284159 0.676562 0.394618 0.535188 0.534259C0.393814 0.673899 0.281371 0.839995 0.204198 1.02311C0.127024 1.20622 0.086672 1.40275 0.0854492 1.60146V30.3696C0.086672 30.5683 0.127024 30.7649 0.204198 30.948C0.281371 31.1311 0.393814 31.2972 0.535188 31.4368C0.676562 31.5765 0.844088 31.6869 1.02814 31.7618C1.21219 31.8368 1.40921 31.8746 1.60791 31.8734H30.7401C30.9388 31.8746 31.1358 31.8368 31.3199 31.7618C31.5039 31.6869 31.6714 31.5765 31.8128 31.4368C31.9542 31.2972 32.0666 31.1311 32.1438 30.948C32.221 30.7649 32.2613 30.5683 32.2625 30.3696V1.60146Z" fill="white"/>
<path d="M30.757 32H1.62476C1.41256 32.0012 1.20217 31.9606 1.00565 31.8805C0.809135 31.8005 0.630322 31.6825 0.479408 31.5333C0.328493 31.3841 0.208464 31.2067 0.126127 31.0111C0.0437906 30.8155 0.000734758 30.6057 -0.000488281 30.3935V1.60659C0.000734758 1.39439 0.0437906 1.18448 0.126127 0.988902C0.208464 0.793322 0.328493 0.615882 0.479408 0.466701C0.630322 0.31752 0.809135 0.199531 1.00565 0.119461C1.20217 0.0393897 1.41256 -0.001203 1.62476 2.71441e-05H30.757C31.1823 0.00247864 31.5895 0.17256 31.8903 0.473314C32.191 0.774068 32.361 1.18127 32.3635 1.60659V30.3748C32.3647 30.587 32.3241 30.7973 32.244 30.9938C32.164 31.1903 32.046 31.3692 31.8968 31.5201C31.7476 31.671 31.5702 31.7911 31.3746 31.8734C31.179 31.9558 30.9692 31.9988 30.757 32ZM1.62476 0.242885C1.43955 0.241654 1.25585 0.276954 1.08427 0.346698C0.91268 0.416442 0.756556 0.519257 0.624722 0.649357C0.492888 0.779457 0.387975 0.934266 0.315965 1.10491C0.243955 1.27556 0.206249 1.45872 0.205027 1.64393V30.3748C0.206249 30.56 0.243955 30.7431 0.315965 30.9138C0.387975 31.0844 0.492888 31.2392 0.624722 31.3693C0.756556 31.4994 0.91268 31.6023 1.08427 31.6721C1.25585 31.7418 1.43955 31.777 1.62476 31.7758H30.757C30.9422 31.777 31.1258 31.7418 31.2974 31.6721C31.469 31.6023 31.6251 31.4994 31.757 31.3693C31.8888 31.2392 31.9937 31.0844 32.0657 30.9138C32.1377 30.7431 32.1754 30.56 32.1767 30.3748V1.60659C32.1754 1.42138 32.1377 1.23822 32.0657 1.06757C31.9937 0.896925 31.8888 0.742117 31.757 0.612017C31.6251 0.481916 31.469 0.379044 31.2974 0.3093C31.1258 0.239556 30.9422 0.204313 30.757 0.205544L1.62476 0.242885Z" fill="#BCBEC0"/>
<path d="M11.3433 30.263H28.4917C29.0463 30.2638 29.5787 30.0454 29.9733 29.6554C30.3679 29.2653 30.5927 28.7352 30.5989 28.1801V11.2129L11.3433 30.263Z" fill="#0E3120"/>
<path d="M30.6265 3.7977C30.6253 3.52197 30.5697 3.2492 30.4628 2.99505C30.356 2.74089 30.2001 2.51036 30.0041 2.31666C29.8081 2.12297 29.5757 1.96993 29.3204 1.86633C29.0651 1.76273 28.7919 1.71061 28.5165 1.71297H22.2062L1.76514 21.9553V28.17C1.76525 28.446 1.81997 28.7193 1.92615 28.974C2.03233 29.2288 2.18786 29.4599 2.38376 29.6542C2.57967 29.8485 2.81207 30.002 3.06756 30.1058C3.32304 30.2097 3.59656 30.2619 3.87231 30.2594H10.0793L30.6237 9.93728L30.6265 3.7977Z" fill="#871320"/>
<path d="M3.87421 1.7132C3.59823 1.70844 3.32408 1.75889 3.06783 1.86159C2.81159 1.96428 2.5784 2.11716 2.38196 2.31125C2.18552 2.50533 2.02978 2.73672 1.92386 2.99185C1.81794 3.24698 1.76399 3.52072 1.76516 3.79699V20.6656L20.9166 1.7179L3.87421 1.7132Z" fill="#0E3120"/>
<path d="M12.0886 29.9739C12.7713 29.7076 13.4765 29.5036 14.1958 29.3642C14.5806 29.2787 16.8061 28.7601 16.6916 26.4959C16.6643 25.9059 15.7755 26.6556 15.7755 26.6556C14.9147 26.7653 14.0746 27.0001 13.2816 27.3527C12.8891 27.6635 12.5763 28.0633 12.3688 28.5191C12.1614 28.9749 12.0653 29.4736 12.0886 29.9739Z" fill="#FFD300"/>
<path d="M19.6431 22.7188C19.6431 22.7188 20.057 25.2836 17.9958 26.1009C17.178 26.3703 16.3788 26.6933 15.6033 27.0677C15.4799 26.5409 15.514 25.9894 15.7014 25.4819C15.8888 24.9743 16.2213 24.5332 16.6574 24.2135C17.3342 23.8318 18.0505 23.525 18.7937 23.2984C19.1293 23.1965 19.4257 22.9942 19.6431 22.7188Z" fill="#FFD300"/>
<path d="M20.7069 19.5469C21.0735 20.0338 21.2586 20.6337 21.2299 21.2428C21.2013 21.8519 20.9608 22.4317 20.5502 22.8821C20.2404 23.2936 18.6983 24.2819 18.3106 24.7432C18.0968 24.2655 17.9997 23.7436 18.0273 23.2209C18.0549 22.6981 18.2064 22.1894 18.4692 21.7368C18.9178 21.2187 19.4274 20.7569 19.987 20.3614C20.2679 20.1291 20.5108 19.8543 20.7069 19.5469Z" fill="#FFD300"/>
<path d="M19.1389 16.1562C19.1389 16.1562 17.9347 16.8505 18.7344 18.8338C19.1429 19.5846 19.491 20.3669 19.7753 21.1732C20.2656 20.8415 20.6302 20.3543 20.8105 19.7901C20.9908 19.2259 20.9763 18.6174 20.7693 18.0625C20.4475 17.2664 19.8751 16.5972 19.1389 16.1562Z" fill="#FFD300"/>
<path d="M16.0548 13.4531C15.9453 13.873 15.9393 14.3133 16.0374 14.736C16.1355 15.1587 16.3348 15.5512 16.6179 15.8798C17.0309 16.359 18.8837 16.9227 19.6825 17.507C19.6863 17.507 20.6634 14.3485 16.0548 13.4531Z" fill="#FFD300"/>
<path d="M13.5035 11.2188C13.5035 11.2188 17.5104 11.5006 16.9716 15.1327C16.4447 14.8083 15.8951 14.5223 15.3272 14.2768C15.0052 14.119 13.4068 13.6192 13.5035 12.1319C13.5316 11.7233 13.5035 11.2188 13.5035 11.2188Z" fill="#FFD300"/>
<path d="M13.5791 7.76752C13.1449 8.11913 12.8368 8.60264 12.7013 9.14501C12.5659 9.68737 12.6104 10.2591 12.8282 10.7739C13.1355 11.3911 13.5861 11.9256 14.1423 12.3325C14.1423 12.3325 14.6116 11.0285 14.8932 10.0871C14.9974 9.70288 15.2808 8.20252 14.3497 7.61721C14.227 7.53694 14.0778 7.50773 13.9339 7.5358C13.79 7.56387 13.6628 7.647 13.5791 7.76752Z" fill="#FFD300"/>
<path d="M13.2494 8.88102C13.2494 8.88102 12.0931 5.5167 16.237 4.60352C16.499 5.03578 16.5838 5.55268 16.4738 6.0461C16.3637 6.53952 16.0674 6.97125 15.6467 7.251C15.2365 7.63337 13.5122 8.49959 13.2494 8.88102Z" fill="#FFD300"/>
<path d="M19.7163 2.04708C19.7163 2.04708 15.4174 1.95315 15.5986 5.75809C15.5986 5.75809 18.2905 4.93885 19.0161 4.14967C19.5038 3.56106 19.7536 2.81091 19.7163 2.04708Z" fill="#FFD300"/>
<path d="M20.9342 19.7195C21.0782 19.165 21.0537 18.5802 20.8638 18.0397C20.6373 17.4877 20.3003 16.988 19.8736 16.5713C19.8413 16.1224 19.7044 15.6874 19.4738 15.3011C18.8859 14.4442 18.0012 13.8362 16.9911 13.5949C16.8934 13.2136 16.7173 12.8568 16.474 12.5474C15.9762 11.9681 15.3191 11.5482 14.5845 11.3402C14.7188 10.9446 14.8661 10.4946 14.9825 10.1104C15.2002 9.39277 15.133 8.61876 14.7948 7.94954C15.1186 7.76879 15.4275 7.56239 15.7184 7.33229C15.9958 7.11951 16.2208 6.84598 16.3761 6.53264C16.5315 6.21931 16.6131 5.87452 16.6147 5.52471C17.5137 5.24783 18.3533 4.80596 19.0908 4.22164C19.5957 3.61329 19.8546 2.83763 19.8163 2.04765L19.8117 1.95371H19.7178C18.49 1.93496 17.2984 2.36977 16.3707 3.17504C15.9697 3.59768 15.6989 4.12708 15.5907 4.69983C14.6791 4.93572 13.892 5.51147 13.3906 6.3092C13.0755 6.89176 12.947 7.55727 13.0227 8.21542C12.7483 8.58326 12.5758 9.01712 12.5227 9.47312C12.4697 9.92911 12.5379 10.3911 12.7204 10.8122C12.9008 11.1759 13.1298 11.5135 13.4009 11.8156C13.4009 11.9198 13.4009 12.0279 13.3897 12.1303C13.2958 13.532 14.6324 14.1032 15.1346 14.3127C15.1909 14.3372 15.2369 14.3569 15.2772 14.3757C15.4884 14.4602 15.7137 14.5636 15.9286 14.6763C16.0251 15.1476 16.2392 15.5868 16.5509 15.9531C17.0134 16.3199 17.5332 16.6078 18.0893 16.8052C18.2113 16.8588 18.3333 16.9132 18.4544 16.9687C18.2841 17.605 18.3463 18.2813 18.6299 18.8758C18.6553 18.9501 18.7444 19.1257 18.9003 19.4311C19.072 19.7665 19.3132 20.2409 19.4794 20.6261C19.0702 20.935 18.6993 21.2917 18.3746 21.6887C18.0144 22.2252 17.8487 22.8692 17.9053 23.5132C17.442 23.6698 16.9979 23.8787 16.5819 24.1361C16.1895 24.4118 15.8765 24.7859 15.674 25.2209C15.4716 25.6558 15.3868 26.1364 15.4283 26.6144C14.6612 26.7187 13.9148 26.9405 13.2151 27.2721C12.8069 27.5914 12.4809 28.0039 12.2646 28.4752C12.0482 28.9464 11.9477 29.4626 11.9714 29.9806V30.131L12.1113 30.0755C12.7889 29.8117 13.4888 29.6092 14.2025 29.4705C14.8912 29.3808 15.5261 29.0505 15.9953 28.538C16.4644 28.0254 16.7377 27.3635 16.7668 26.6689L16.9677 26.5947C17.3281 26.4651 17.6998 26.3298 18.0161 26.2001C18.5093 25.9912 18.9328 25.6459 19.2369 25.2046C19.541 24.7633 19.713 24.2443 19.7328 23.7086C20.0517 23.4892 20.3471 23.2373 20.6142 22.957C21.0097 22.5243 21.2546 21.9751 21.3123 21.3916C21.37 20.808 21.2373 20.2214 20.9342 19.7195ZM16.5227 3.31221C17.3842 2.56847 18.4826 2.15701 19.6202 2.15194C19.6319 2.85585 19.3915 3.54071 18.9425 4.08259C18.2419 4.63156 17.4465 5.04714 16.596 5.30863L16.4082 5.38002C16.0994 5.49088 15.8394 5.57732 15.6958 5.62336C15.6915 5.36578 15.7122 5.1084 15.7578 4.85486C15.7709 4.77594 15.7944 4.7036 15.8132 4.62844C15.9261 4.13404 16.1703 3.67931 16.5199 3.31221H16.5227ZM13.5755 6.40126C14.0268 5.68074 14.7292 5.15347 15.5466 4.92156C15.5051 5.20136 15.4906 5.48452 15.5034 5.7671L15.51 5.89675L15.6339 5.85918C15.6714 5.8479 15.9924 5.74926 16.428 5.59424C16.4111 5.90375 16.3274 6.20591 16.1825 6.47987C16.0376 6.75384 15.8351 6.99307 15.5888 7.18104C15.3044 7.40415 15.0032 7.60486 14.6878 7.78137L14.5451 7.86686L14.501 7.89412C14.085 8.12635 13.6874 8.39018 13.3118 8.68329C13.2793 8.54329 13.2552 8.4015 13.2395 8.25864C13.2292 8.17033 13.2235 8.07074 13.2198 7.97116C13.1916 7.42539 13.3137 6.88235 13.5727 6.40126H13.5755ZM13.4056 11.4914C13.213 11.2597 13.0491 11.0054 12.9176 10.7342C12.7604 10.3791 12.6921 9.99096 12.7186 9.60347C12.7451 9.21598 12.8656 8.84079 13.0696 8.51041C13.0925 8.6472 13.1238 8.78243 13.1635 8.91534L13.2292 9.10325L13.3427 8.93695C13.7342 8.58897 14.1666 8.29018 14.6305 8.04725C14.92 8.67507 14.9759 9.38574 14.7882 10.0512C14.6718 10.4373 14.5245 10.8873 14.3902 11.2819C14.3677 11.3496 14.3461 11.4125 14.3245 11.4764C14.2203 11.7827 14.1302 12.0401 14.0814 12.1801C13.9075 12.0509 13.7499 11.901 13.6121 11.7338C13.5389 11.6577 13.4695 11.575 13.4 11.4914H13.4056ZM15.9014 14.4264C15.7231 14.339 15.541 14.2535 15.3664 14.184C15.3317 14.1671 15.2819 14.1464 15.2209 14.1201C14.7112 13.904 13.5173 13.3958 13.5999 12.1369C13.5999 12.1002 13.5999 12.0626 13.5999 12.026C13.7402 12.1855 13.9069 12.3196 14.0927 12.4225L14.1931 12.4657L14.2288 12.3633C14.2288 12.3567 14.3574 12.0035 14.516 11.5365C15.2132 11.7322 15.838 12.1277 16.3134 12.6743C16.5138 12.9301 16.6644 13.2214 16.7574 13.5329C16.7818 13.609 16.81 13.6823 16.8278 13.7612C16.9135 14.1562 16.9319 14.5627 16.8822 14.9638C16.7236 14.8698 16.4383 14.7054 16.1192 14.5401C16.0488 14.5016 15.9746 14.4649 15.8986 14.4264H15.9014ZM18.1794 16.6135C17.6527 16.4239 17.158 16.1549 16.7124 15.8159C16.4623 15.5191 16.28 15.1712 16.1783 14.7966C16.5866 15.0164 16.9085 15.2137 16.9132 15.2175L17.0446 15.2983L17.0671 15.1451C17.1359 14.7057 17.1292 14.2577 17.0474 13.8204C17.9647 14.0579 18.765 14.6199 19.3001 15.4025C19.4763 15.6974 19.5934 16.0239 19.6446 16.3636C19.66 16.4604 19.6703 16.558 19.6756 16.6558C19.688 16.885 19.6738 17.1148 19.6333 17.3407C19.3358 17.1566 19.026 16.9934 18.706 16.8522L18.5286 16.7704L18.1794 16.6135ZM19.088 19.3324C18.9613 19.0844 18.8515 18.8693 18.828 18.7997C18.5662 18.2536 18.4999 17.634 18.6403 17.0448C18.9899 17.1955 19.3248 17.3782 19.6408 17.5906L19.7563 17.6742L19.7976 17.538C19.8562 17.322 19.8877 17.0995 19.8914 16.8757C20.223 17.2336 20.4892 17.647 20.678 18.097C20.8308 18.5417 20.8673 19.0181 20.7841 19.4809C20.7695 19.5705 20.7501 19.6592 20.7259 19.7468C20.5682 20.2448 20.2631 20.6831 19.8511 21.0038C19.8204 20.8948 19.7831 20.7878 19.7394 20.6834C19.7159 20.6252 19.6831 20.5547 19.6549 20.4955C19.501 20.1564 19.302 19.7562 19.0852 19.3324H19.088ZM14.1753 29.2676C13.4986 29.3979 12.8344 29.5865 12.1901 29.8313C12.1847 29.3725 12.2848 28.9187 12.4827 28.5049C12.6806 28.091 12.971 27.7284 13.3315 27.445C14.0034 27.1299 14.7188 26.9177 15.4537 26.8155C15.4734 26.9827 15.4987 27.0926 15.4997 27.0973L15.5447 27.2683L15.6696 27.1424C15.9536 26.9744 16.2563 26.8404 16.5716 26.7432C16.5196 27.3748 16.2533 27.9697 15.8169 28.429C15.3805 28.8882 14.8002 29.1841 14.1725 29.2676H14.1753ZM17.9523 26.0075C17.6378 26.1362 17.268 26.2706 16.9104 26.4002L16.7762 26.4491L16.5885 26.5196C16.2743 26.6246 15.9673 26.7501 15.6696 26.8953C15.6639 26.8634 15.6592 26.8183 15.6545 26.777C15.647 26.7181 15.6414 26.6505 15.6376 26.574C15.6008 26.1328 15.681 25.6896 15.87 25.2893C16.0591 24.8889 16.3503 24.5456 16.7142 24.2939C17.0979 24.0562 17.5073 23.8627 17.9344 23.717C17.9764 24.0845 18.0713 24.444 18.216 24.7843L18.2826 24.929L18.385 24.8069C18.7312 24.4713 19.1038 24.1641 19.4991 23.888L19.5169 23.8749C19.4759 24.34 19.308 24.7848 19.0315 25.1609C18.7551 25.537 18.3808 25.8298 17.9494 26.0075H17.9523ZM20.4659 22.8236C20.2534 23.0503 20.0185 23.255 19.7647 23.4343L19.5535 23.5949L19.3761 23.7293C19.0175 23.9875 18.6728 24.2648 18.3437 24.5598C18.2393 24.2629 18.17 23.9549 18.1372 23.6419C18.1297 23.5724 18.1212 23.5057 18.1175 23.4333C18.0784 22.8545 18.2312 22.2789 18.552 21.7958C18.8519 21.4309 19.1933 21.1023 19.5695 20.8168C19.621 20.9337 19.6567 21.0569 19.6756 21.1832L19.6878 21.3505L19.8304 21.2631C20.2895 20.9439 20.6452 20.4971 20.8535 19.9779C21.0907 20.4348 21.1806 20.9541 21.1106 21.4643C21.0407 21.9744 20.8145 22.4503 20.4631 22.8264L20.4659 22.8236Z" fill="#871320"/>
<path d="M139.714 28.1131C141.102 28.4085 142.517 28.5587 143.936 28.5615C145.736 28.6835 147.526 28.2073 149.027 27.2071C149.565 26.8314 150.005 26.3312 150.309 25.7491C150.614 25.167 150.773 24.5201 150.773 23.8633C150.768 22.9621 150.491 22.0834 149.979 21.3414C149.343 20.4473 148.441 19.7771 147.401 19.4267C145.981 18.9259 144.48 18.6915 142.974 18.7354C142.208 18.7354 141.564 18.7354 141.022 18.7354C140.584 18.7517 140.148 18.7923 139.714 18.8569V28.1131ZM139.714 17.3531C140.227 17.4427 140.745 17.502 141.265 17.5305C141.85 17.5679 142.495 17.5866 143.198 17.5866C144.566 17.6453 145.934 17.4684 147.243 17.0635C148.088 16.7629 148.814 16.2 149.316 15.457C149.792 14.7649 150.043 13.9431 150.035 13.1032C150.028 12.441 149.862 11.7902 149.552 11.2052C149.242 10.6202 148.796 10.118 148.251 9.74069C146.715 8.70698 144.878 8.21407 143.03 8.33964C141.914 8.32659 140.801 8.44893 139.714 8.70393V17.3531ZM149.372 18.2871C150.784 18.4845 152.123 19.0338 153.267 19.8843C153.827 20.3318 154.279 20.9004 154.588 21.5475C154.897 22.1946 155.055 22.9034 155.051 23.6204C155.03 24.7931 154.616 25.9247 153.874 26.8335C153.042 27.8832 151.917 28.6631 150.643 29.0752C148.595 29.6262 146.475 29.8624 144.357 29.7757H132.56V29.1593H133.494C133.916 29.1948 134.341 29.1286 134.733 28.966C135.125 28.8035 135.472 28.5495 135.745 28.2252C136.108 27.4539 136.257 26.5987 136.174 25.75V11.2071C136.174 9.81542 135.988 8.93742 135.633 8.57315C135.344 8.31318 135.006 8.11456 134.638 7.98932C134.27 7.86409 133.881 7.81487 133.494 7.84464H132.56V7.22814H143.366C144.992 7.19289 146.617 7.32755 148.214 7.62983C149.801 7.89479 151.272 8.63013 152.436 9.74069C152.898 10.1977 153.264 10.7418 153.514 11.3414C153.764 11.941 153.893 12.5843 153.893 13.234C153.898 14.3531 153.489 15.4344 152.744 16.2696C151.836 17.2396 150.664 17.9216 149.372 18.2311V18.2871Z" fill="#AF1237"/>
<path d="M173.886 20.9788L169.646 11.8813L165.293 20.9788H173.886ZM174.4 22.2024H164.723L163.023 25.7517C162.69 26.3589 162.477 27.0251 162.398 27.7132C162.403 27.9017 162.455 28.0859 162.55 28.2491C162.644 28.4122 162.778 28.5491 162.939 28.6472C163.673 28.9994 164.48 29.1722 165.293 29.1516V29.768H157.419V29.1516C158.137 29.1021 158.832 28.881 159.446 28.5071C160.346 27.5735 161.054 26.4723 161.529 25.266L170.327 6.74414H170.972L179.677 25.4715C180.093 26.5663 180.729 27.5644 181.545 28.4043C182.248 28.8907 183.082 29.1513 183.936 29.1516V29.768H174.11V29.1516C174.811 29.1833 175.507 29.0286 176.128 28.7032C176.286 28.6035 176.417 28.4658 176.508 28.3027C176.599 28.1396 176.648 27.9562 176.651 27.7692C176.557 26.9595 176.306 26.1758 175.913 25.4621L174.4 22.2024Z" fill="#AF1237"/>
<path d="M183.888 7.22266H190.678L205.968 24.11V11.127C205.968 9.74459 205.791 8.87592 205.445 8.53032C205.15 8.27599 204.808 8.08373 204.437 7.96497C204.066 7.84621 203.675 7.8034 203.288 7.83915H202.419V7.22266H211.124V7.83915H210.19C209.774 7.79603 209.353 7.85134 208.962 8.0006C208.571 8.14986 208.221 8.38889 207.939 8.69844C207.59 9.45746 207.452 10.2961 207.537 11.127V30.0971H206.874L190.435 11.9676V25.838C190.435 27.211 190.604 28.0796 190.94 28.4252C191.235 28.6761 191.576 28.8664 191.945 28.985C192.314 29.1036 192.702 29.1482 193.088 29.1164H193.975V29.7329H185.27V29.1164H186.139C186.558 29.1603 186.982 29.1054 187.376 28.9562C187.77 28.807 188.124 28.5675 188.409 28.2571C188.764 27.5034 188.906 26.6668 188.82 25.838V10.1742C188.322 9.61382 187.764 9.10957 187.157 8.67045C186.648 8.3586 186.093 8.12849 185.513 7.98857C184.98 7.86907 184.434 7.81886 183.888 7.83915V7.22266Z" fill="#AF1237"/>
<path d="M222.959 17.2915L232.178 25.5484C233.327 26.6617 234.629 27.6052 236.045 28.3505C237.056 28.8213 238.145 29.103 239.258 29.1818V29.7983H227.368V29.1818C227.9 29.2277 228.433 29.1139 228.9 28.8549C229.035 28.7869 229.15 28.6847 229.233 28.5586C229.317 28.4325 229.366 28.2866 229.376 28.1356C229.38 27.8875 229.319 27.6427 229.199 27.4258C228.872 26.9822 228.485 26.5862 228.05 26.2489L219.419 18.5618V25.8193C219.371 26.5774 219.45 27.3382 219.653 28.0703C219.824 28.3893 220.097 28.6423 220.428 28.7895C220.95 29.0497 221.526 29.184 222.109 29.1818H222.959V29.7983H212.302V29.1818H213.18C213.592 29.2209 214.007 29.1684 214.397 29.0279C214.786 28.8874 215.139 28.6624 215.431 28.3692C215.824 27.5804 215.979 26.6947 215.879 25.8193V11.2016C215.925 10.4368 215.843 9.6697 215.636 8.93195C215.469 8.62122 215.203 8.37487 214.88 8.23143C214.351 7.97225 213.769 7.83805 213.18 7.83915H212.302V7.22266H222.959V7.83915H222.109C221.528 7.83792 220.954 7.96554 220.428 8.21279C220.072 8.37121 219.788 8.65799 219.634 9.01604C219.45 9.72913 219.378 10.4664 219.419 11.2016V18.0948L221.941 15.9839C224.315 14.1667 226.53 12.1513 228.563 9.95942C228.851 9.63694 229.027 9.23111 229.068 8.80117C229.064 8.6652 229.026 8.53238 228.957 8.41488C228.889 8.29738 228.792 8.199 228.675 8.1287C228.28 7.89947 227.823 7.79833 227.368 7.83915H226.789V7.22266H235.979V7.83915C235.481 7.84239 234.986 7.90831 234.504 8.03532C233.936 8.20658 233.39 8.44483 232.879 8.74513C232.042 9.2293 231.254 9.79232 230.525 10.4264C230.245 10.6413 229.002 11.7807 226.789 13.8263L222.959 17.2915Z" fill="#AF1237"/>
<path d="M53.4592 20.5778L49.7231 11.882L46.099 20.5778H53.4592ZM63.2758 29.75H53.1323V28.6292C53.8817 28.5948 54.6261 28.4884 55.3552 28.3116C55.9436 28.1528 56.2332 27.9567 56.2332 27.7231C56.2407 27.6081 56.2407 27.4926 56.2332 27.3776C56.2126 27.2527 56.1782 27.1306 56.1305 27.0133L54.0756 21.9695H45.5387C45.2211 22.7074 44.9595 23.3519 44.7541 23.8936L44.2123 25.4161C44.0878 25.7771 43.9849 26.1451 43.9041 26.5183C43.8548 26.7487 43.8266 26.9832 43.82 27.2188C43.82 27.6391 44.175 27.966 44.9035 28.1528C45.6932 28.4034 46.5134 28.5448 47.3413 28.5731V29.694H38.1692V28.5731C38.5435 28.5361 38.9148 28.4737 39.2807 28.3863C39.6676 28.3138 40.04 28.1782 40.3828 27.9847C40.7902 27.7387 41.1507 27.4225 41.4476 27.0507C41.7472 26.6557 41.998 26.226 42.1948 25.7711C43.4402 22.9503 44.7883 19.7839 46.2392 16.272L50.1901 6.93164H51.5631L59.6891 26.2941C59.828 26.655 60.027 26.9897 60.2775 27.2842C60.5452 27.5834 60.8609 27.8359 61.2116 28.0314C61.5382 28.2033 61.8871 28.3291 62.2483 28.405C62.5937 28.496 62.9472 28.5523 63.3038 28.5731L63.2758 29.75Z" fill="#AF1237"/>
<path d="M87.6797 20.7785L86.5682 20.9279C86.1807 20.9759 85.8009 21.0732 85.438 21.2175C85.1245 21.3503 84.8669 21.588 84.7095 21.89C84.5644 22.2125 84.4941 22.5638 84.504 22.9174V24.6547C84.504 25.9157 84.504 26.775 84.504 27.214C84.504 27.6529 84.504 28.0172 84.56 28.3068C83.0882 28.9215 81.5664 29.409 80.0114 29.7638C78.5523 30.0943 77.0614 30.2635 75.5654 30.2683C74.0279 30.2725 72.5024 29.9971 71.0634 29.4557C69.6806 28.9441 68.4113 28.1666 67.3273 27.1673C66.2176 26.1434 65.3333 24.8996 64.7307 23.5152C64.0807 21.9965 63.7623 20.3565 63.7967 18.7049C63.7893 17.0739 64.1068 15.4577 64.7307 13.9507C65.3311 12.5214 66.2162 11.2294 67.3323 10.1535C68.4484 9.07758 69.7719 8.24025 71.2222 7.69266C72.7655 7.09884 74.4069 6.80104 76.0605 6.81472C77.2719 6.79181 78.4802 6.94599 79.6471 7.27239C80.5851 7.538 81.4905 7.90768 82.3464 8.37454L83.0563 7.30038H84.4293L84.5787 15.1463H83.1684C82.9165 14.2848 82.6043 13.4421 82.2343 12.6244C81.8918 11.8047 81.4257 11.0424 80.852 10.364C80.2909 9.69528 79.5935 9.15393 78.8065 8.77617C77.8983 8.36353 76.9082 8.16233 75.911 8.18772C74.7809 8.16632 73.6604 8.39933 72.6325 8.86955C71.6461 9.34895 70.7857 10.0527 70.1201 10.9244C69.371 11.8955 68.8246 13.0072 68.5135 14.1935C68.1168 15.6193 67.9249 17.0943 67.9438 18.5742C67.9364 19.9353 68.1219 21.2907 68.4948 22.5998C68.8338 23.7791 69.3846 24.8868 70.1201 25.8689C70.8268 26.8003 71.7374 27.5576 72.782 28.0826C73.9105 28.6303 75.1518 28.9054 76.406 28.8858C77.3568 28.9004 78.3035 28.7584 79.2081 28.4656C79.8474 28.2686 80.4434 27.9516 80.9641 27.5315C81.0559 26.9819 81.1059 26.4261 81.1135 25.8689C81.1135 25.3085 81.1135 24.8415 81.1135 24.4492V23.2163C81.1215 22.8153 81.055 22.4162 80.9174 22.0394C80.8437 21.8611 80.7319 21.701 80.5899 21.5704C80.448 21.4397 80.2792 21.3416 80.0954 21.2829C79.6004 21.0946 79.0818 20.9752 78.5543 20.9279C77.9098 20.8439 77.4054 20.7971 77.0412 20.7785V19.6296H87.7264L87.6797 20.7785Z" fill="#AF1237"/>
<path d="M106.066 13.0078C106.096 12.4097 105.999 11.8122 105.78 11.2549C105.561 10.6976 105.225 10.1935 104.796 9.77605C103.799 8.9318 102.513 8.50663 101.209 8.58981H98.2858V18.229H100.537C101.981 18.2777 103.389 17.7771 104.478 16.828C105.008 16.3496 105.425 15.7597 105.7 15.1008C105.975 14.4418 106.1 13.7302 106.066 13.0171M115.098 29.755H108.56C107.103 27.6565 105.789 25.8445 104.618 24.3189C103.448 22.7933 102.171 21.2148 100.789 19.5834H98.3045V26.7007C98.3037 27.0214 98.3673 27.339 98.4913 27.6347C98.5737 27.7916 98.6876 27.9298 98.8258 28.0407C98.964 28.1516 99.1235 28.2328 99.2945 28.2792C99.6486 28.3807 100.011 28.4495 100.378 28.4847C100.892 28.5501 101.312 28.5874 101.686 28.5968V29.7176H91.4114V28.5968L92.6069 28.4847C92.975 28.4599 93.3388 28.391 93.6904 28.2792C94.003 28.1707 94.2675 27.9558 94.4376 27.6721C94.6062 27.3635 94.6869 27.0146 94.6711 26.6634V10.4672C94.6779 10.1326 94.6208 9.79976 94.503 9.4865C94.4241 9.32438 94.3103 9.18171 94.1698 9.06868C94.0294 8.95565 93.8657 8.87504 93.6904 8.83266C93.3269 8.72043 92.9553 8.6361 92.5789 8.58046C92.1932 8.50463 91.8033 8.45163 91.4114 8.42169V7.30084H102.62C103.595 7.29808 104.569 7.39509 105.524 7.59039C106.389 7.76606 107.218 8.08155 107.981 8.52442C108.674 8.92396 109.258 9.48867 109.681 10.1683C110.119 10.9113 110.339 11.7626 110.316 12.6248C110.333 13.4122 110.187 14.1946 109.886 14.9226C109.599 15.587 109.164 16.1777 108.616 16.6505C108.053 17.1302 107.424 17.5266 106.748 17.8274C105.98 18.1763 105.183 18.4575 104.366 18.668C105.571 20.1344 106.561 21.3673 107.365 22.4041L110.288 26.0562C110.685 26.5761 111.143 27.0465 111.652 27.4573C112.032 27.7387 112.439 27.9827 112.866 28.1858C113.225 28.3462 113.606 28.4532 113.996 28.5034C114.367 28.5703 114.741 28.614 115.117 28.6341L115.098 29.755Z" fill="#AF1237"/>
<path d="M128.444 29.7504H117.469V28.7416L118.805 28.6575C119.221 28.6449 119.634 28.5885 120.038 28.4894C120.353 28.4004 120.638 28.2258 120.86 27.9851C121.059 27.7163 121.152 27.3839 121.122 27.051V10.6401C121.131 10.1264 121.068 9.61384 120.935 9.11761C120.706 8.81925 120.372 8.61898 120.001 8.55722C119.575 8.42524 119.141 8.31916 118.702 8.23962C118.283 8.15172 117.859 8.09242 117.432 8.06215V7.02539H128.407V8.03416C127.979 8.04561 127.552 8.07989 127.127 8.13689C126.697 8.19028 126.269 8.26824 125.848 8.3704C125.672 8.40124 125.503 8.46662 125.353 8.5628C125.202 8.65899 125.072 8.78406 124.97 8.9308C124.821 9.18905 124.743 9.48255 124.746 9.7808V26.9016C124.74 27.2013 124.828 27.4951 124.998 27.7422C125.214 28.0168 125.512 28.2161 125.848 28.312C126.234 28.4205 126.627 28.5047 127.025 28.5642C127.482 28.6425 127.943 28.6924 128.407 28.7136L128.444 29.7504Z" fill="#AF1237"/>
</svg>
